<svg xmlns="http://www.w3.org/2000/svg" xmlns:xlink="http://www.w3.org/1999/xlink" id="Layer_1" width="48" height="48" x="0" y="0" enable-background="new 0 0 48 48" version="1.1" viewBox="0 0 48 48" xml:space="preserve"><circle cx="30.666" cy="10.176" r="4.875" fill="#FFF" stroke="#333" stroke-miterlimit="10" stroke-width="2"/><path fill="none" stroke="#333" stroke-miterlimit="10" stroke-width="1.5" d="M11.75,20.438c0,0,5.438,0.625,6.438-5.188	c0.812-6.5,7.625-5.625,7.625-5.625"/><path fill="none" stroke="#333" stroke-linecap="round" stroke-miterlimit="10" stroke-width="1.8" d="M11.5,23.688	c0,0,4.237-0.176,4.41,6.454c0.173,6.626,4.465,5.921,4.465,5.921"/><line x1="30.938" x2="37.562" y1="36" y2="36" fill="none" stroke="#333" stroke-miterlimit="10" stroke-width="1.5"/><path fill="none" stroke="#333" stroke-linecap="round" stroke-miterlimit="10" stroke-width="1.5" d="M20.541,32.014"/><path fill="none" stroke="#333" stroke-linecap="round" stroke-miterlimit="10" stroke-width="1.5" d="M18.433,38.141"/><path fill="none" stroke="#333" stroke-linecap="round" stroke-miterlimit="10" stroke-width="1.5" d="M31.593,40.141"/><path fill="none" stroke="#333" stroke-linecap="round" stroke-miterlimit="10" stroke-width="1.5" d="M31.484,32.014"/><path fill="none" stroke="#333" stroke-linecap="round" stroke-miterlimit="10" stroke-width="1.5" d="M36.729,32.014"/><path fill="none" stroke="#333" stroke-linecap="round" stroke-miterlimit="10" stroke-width="1.5" d="M36.62,40.141"/><path fill="none" stroke="#333" stroke-linecap="round" stroke-miterlimit="10" stroke-width="1.5" d="M11.718,25.543"/><path fill="none" stroke="#333" stroke-linecap="round" stroke-miterlimit="10" stroke-width="1.5" d="M11.609,17.416"/><circle cx="41.416" cy="36.051" r="4.875" fill="#FFF" stroke="#333" stroke-miterlimit="10" stroke-width="2"/><circle cx="25.416" cy="36.051" r="4.875" fill="#FFF" stroke="#333" stroke-miterlimit="10" stroke-width="2"/><circle cx="6.666" cy="21.676" r="4.875" fill="#FFF" stroke="#333" stroke-miterlimit="10" stroke-width="2"/></svg>