<svg xmlns="http://www.w3.org/2000/svg" xmlns:xlink="http://www.w3.org/1999/xlink" id="Layer_1" width="48" height="48" x="0" y="0" enable-background="new 0 0 48 48" version="1.1" viewBox="0 0 48 48" xml:space="preserve"><g><g><rect width="36" height="3.429" x="6" y="14.572"/><rect width="36" height="3.427" x="6" y="29.939"/><rect width="3.43" height="36" x="14.572" y="6"/><rect width="3.425" height="36" x="30.003" y="6"/></g><path d="M20.572,16.284c0,2.369-1.916,4.288-4.287,4.288c-2.367,0-4.285-1.919-4.285-4.288c0-2.362,1.918-4.283,4.285-4.283 C18.656,12.001,20.572,13.922,20.572,16.284z"/><path d="M36,16.284c0,2.369-1.918,4.288-4.285,4.288s-4.287-1.919-4.287-4.288c0-2.362,1.92-4.283,4.287-4.283S36,13.922,36,16.284 z"/><path d="M20.572,31.651c0,2.37-1.916,4.288-4.287,4.288c-2.367,0-4.285-1.918-4.285-4.288c0-2.364,1.918-4.283,4.285-4.283 C18.656,27.368,20.572,29.287,20.572,31.651z"/><path d="M36,31.651c0,2.37-1.918,4.288-4.285,4.288s-4.287-1.918-4.287-4.288c0-2.364,1.92-4.283,4.287-4.283S36,29.287,36,31.651z"/></g></svg>