<svg xmlns="http://www.w3.org/2000/svg" xmlns:xlink="http://www.w3.org/1999/xlink" id="Layer_1" width="48" height="48" x="0" y="0" enable-background="new 0 0 48 48" version="1.1" viewBox="0 0 48 48" xml:space="preserve"><g><polygon fill="#FFF" points="12 6.999 28.003 6.999 36.001 14.001 36.001 41.001 12 41.001"/><rect width="1.999" height="36" x="11.001" y="6" fill="#333"/><rect width="17.002" height="2" x="11.001" y="6" fill="#333"/><rect width="1.999" height="27.999" x="35" y="14.001" fill="#333"/><rect width="25.998" height="2" x="11.001" y="40" fill="#333"/><polygon fill="#333" points="28.003 6 36.999 14.001 36.999 15.999 35 15 27.001 8"/><path fill="#333" d="M25.002,8c1.999,0,3.001,4,1.999,7.999c0,0,7.999-3.122,7.999,1.001c0,1,1.001-2,1.001-2l-7.998-8.001 C28.003,6.999,24.441,8,25.002,8z"/></g></svg>