<svg xmlns="http://www.w3.org/2000/svg" xmlns:svg="http://www.w3.org/2000/svg" id="Layer_1" width="48" height="48" x="0" y="0" enable-background="new 0 0 48 48" version="1.1" viewBox="0 0 48 48" xml:space="preserve"><metadata id="metadata4978"/><g id="g3034" fill="#000" fill-opacity="1" stroke="none" transform="matrix(0.89572417,0,0,0.89572417,4.3708199,4.3703644)"><path id="path3036" fill="#000" fill-opacity="1" stroke="none" d="m 6.2689487,6.262073 c -2.8626758,2.858535 -4.434801,6.661173 -4.4403221,10.708119 0.00552,4.048326 1.5776463,7.848204 4.4403221,10.706739 2.8557744,2.859915 6.6584123,4.434801 10.7067383,4.434801 4.046946,0 7.849584,-1.574886 10.71226,-4.434801 5.900646,-5.900646 5.895124,-15.507311 -0.0069,-21.414858 -5.907547,-5.90340605 -15.511452,-5.90340605 -21.4120973,0 z m 17.6301623,3.783315 c 1.844038,1.845418 2.862676,4.306436 2.862676,6.922043 0,2.621129 -1.024159,5.080767 -2.868197,6.928946 -3.81368,3.81506 -10.024886,3.8123 -13.844087,-0.0028 -1.8495595,-1.842658 -2.8612959,-4.300915 -2.8612959,-6.919283 0,-2.621129 1.0117364,-5.080767 2.8612959,-6.926185 l 0.0055,-0.0028 c 1.844038,-1.846799 4.300915,-2.8626762 6.926184,-2.8626762 2.611467,0 5.075246,1.0158772 6.917903,2.8626762 z"/><path id="path3038" fill="#000" fill-opacity="1" stroke="none" d="m 27.345,27.341 c -0.485,0.487 -1.015,0.919 -1.564,1.281 l -1.243,0.82 11.535,11.537 c 1.355,1.354 3.558,1.355 4.913,0.002 C 41.639,40.325 42,39.451 42,38.524 42,37.595 41.639,36.725 40.985,36.074 L 29.446,24.535 28.624,25.774 c -0.369,0.56 -0.794,1.083 -1.279,1.567 z"/></g></svg>